<svg width="33" height="30" viewBox="0 0 33 30" fill="none" xmlns="http://www.w3.org/2000/svg">
<path d="M19.1795 17.4C18.7989 17.7684 18.34 18.0639 17.8301 18.2689C17.3202 18.4739 16.7697 18.5841 16.2116 18.593C15.6534 18.6018 15.099 18.5092 14.5814 18.3206C14.0638 18.132 13.5936 17.8513 13.1989 17.4952C12.8041 17.1391 12.493 16.7149 12.2839 16.248C12.0748 15.781 11.9722 15.2809 11.982 14.7774C11.9918 14.2739 12.114 13.7773 12.3412 13.3173C12.5684 12.8573 12.896 12.4433 13.3044 12.1M24.4726 22.175C22.104 23.8038 19.2198 24.7061 16.2419 24.75C6.54252 24.75 1 14.75 1 14.75C2.72357 11.8524 5.11412 9.32076 8.01129 7.325L24.4726 22.175ZM13.3321 5.05C14.2859 4.8486 15.2624 4.74792 16.2419 4.75C25.9413 4.75 31.4839 14.75 31.4839 14.75C30.6428 16.1695 29.6397 17.5059 28.4909 18.7375L13.3321 5.05Z" stroke="#5E65EB" stroke-width="2" stroke-linecap="round" stroke-linejoin="round"/>
<path d="M1 1L31.4839 28.5" stroke="#5E65EB" stroke-width="2" stroke-linecap="round" stroke-linejoin="round"/>
</svg>
