<svg width="500" height="538" viewBox="0 0 500 538" fill="none" xmlns="http://www.w3.org/2000/svg">
<g clip-path="url(#clip0_3:0)">
<path d="M75.8691 312.121C46.1719 312.121 21.9663 309.35 21.1666 305.88L25.5918 358.174C25.5918 383.002 48.2512 403.258 75.9224 403.258C103.62 403.258 126.253 382.948 126.253 358.174L130.678 305.799C129.985 309.35 105.753 312.121 75.8691 312.121Z" fill="#DEC7B2"/>
<path d="M75.8691 312.121C45.7187 312.121 21.2199 309.296 21.1133 305.745V305.692C21.3532 302.168 45.772 299.316 75.8691 299.316C105.966 299.316 130.332 302.141 130.625 305.692V305.745C130.518 309.296 106.019 312.121 75.8691 312.121Z" fill="#E8D4C1"/>
<path d="M75.869 311.072C50.4105 311.072 29.7771 308.651 29.7238 305.692V305.638C29.9637 302.679 50.5438 300.258 75.869 300.258C101.274 300.258 121.854 302.625 122.014 305.638V305.692C121.961 308.651 101.328 311.072 75.869 311.072Z" fill="#BA9C7E"/>
<path d="M23.0593 328.314C26.5515 328.422 30.0437 329.767 33.0294 332.699C38.6543 338.187 42.1465 346.633 46.6784 353.062C48.4112 349.592 49.8774 346.068 51.2103 342.41C52.8098 338.079 58.5946 334.017 63.1265 337.541C67.9516 341.307 71.5504 345.584 74.6961 350.91C77.3886 355.483 79.5745 360.917 83.8132 364.334C87.8919 367.642 92.4771 368.611 94.1299 362.72C95.6227 357.582 95.1162 352.013 96.7157 346.875C98.1019 342.598 100.261 338.079 104.633 336.223C109.805 333.963 114.79 336.734 119.375 339.128C122.121 340.527 124.813 342.033 127.453 343.594L126.546 354.65C121.854 351.691 116.123 348.059 111.298 347.36C108.259 346.902 108.499 348.974 108.259 351.879C108.099 354.488 108.099 357.097 107.965 359.626C107.672 364.898 106.926 370.144 103.833 374.502C97.2489 383.863 84.8529 383.406 76.1356 377.461C71.4438 374.287 68.0582 370.117 65.0725 365.302C64.0862 363.742 63.1798 362.128 62.1934 360.487C58.4613 369.229 52.7298 377.084 43.3195 373.802C37.4813 371.731 33.6959 365.302 30.177 360.487C29.084 358.98 27.0847 355.403 25.0853 352.148L23.0593 328.314Z" fill="#EBDBCD"/>
<path d="M1.54612 133.397C2.69242 128.932 7.91742 128.259 11.0098 130.842C16.8479 135.764 19.8869 142.597 23.1126 149.349C26.4448 156.477 30.6301 162.933 35.4286 169.147C45.2388 181.763 56.1153 193.519 63.3397 207.964C77.2819 235.967 80.5875 269 71.0172 298.967C70.724 299.881 72.5634 295.147 69.5777 303.486C66.8852 311.018 56.2753 306.956 56.3819 298.213C56.4885 289.659 54.1959 281.67 50.4105 274.03C42.9462 258.939 33.6159 244.871 26.3382 229.591C19.0072 214.259 12.5293 198.468 7.30428 182.328C2.23923 166.619 -2.55923 149.941 1.54612 133.397Z" fill="#4C7378"/>
<path d="M69.8977 45.461C73.6298 38.5746 84.693 43.2552 82.4537 50.7872C76.0291 72.9528 80.6143 96.4365 84.6396 118.602C88.7183 141.225 93.4102 163.74 96.2093 186.525C101.141 227.09 99.5415 272.632 74.083 306.472C71.3372 310.13 65.6057 307.064 67.845 302.759C70.3775 297.944 64.0062 266.364 61.1805 256.249C58.3014 245.839 55.449 235.375 52.8631 224.884C47.8248 204.413 43.6927 183.458 42.5464 162.341C40.3871 121.238 50.4106 81.4532 69.8977 45.461Z" fill="#57848A"/>
<path d="M82.0005 270.883C84.9862 257.056 82.8002 242.477 85.7326 228.704C88.6117 215.227 92.5038 201.562 98.7418 189.242C104.66 177.567 113.697 169.228 124.307 161.992C134.277 155.159 146.087 148.461 149.606 135.953C151.658 128.555 164.214 129.658 163.414 137.863C161.762 154.594 154.751 169.336 146.62 183.808C137.956 199.195 130.385 213.882 126.093 231.125C118.815 260.688 112.497 299.047 79.0681 308.139C75.016 309.162 75.6292 300.392 82.0005 270.883Z" fill="#689399"/>
<path d="M436.287 24.1024L434.634 22.5422L450.469 5.3531L462.839 22.6498L460.946 23.9948L450.229 9.0115L436.287 24.1024Z" fill="#E8D4C1"/>
<path d="M380.225 468.921C375.693 470.131 370.761 467.011 368.575 461.523L356.659 430.965C354.02 424.24 356.713 416.896 362.284 415.47L369.668 413.507C375.24 412 381.131 417.084 382.171 424.213L386.703 456.735C387.503 462.492 384.757 467.71 380.225 468.921Z" fill="#7A5B3C"/>
<path d="M190.099 468.921C194.631 470.131 199.563 467.011 201.749 461.523L213.665 430.965C216.304 424.24 213.612 416.896 208.04 415.47L200.656 413.507C195.084 412 189.193 417.084 188.153 424.213L183.621 456.735C182.742 462.492 185.514 467.71 190.099 468.921Z" fill="#7A5B3C"/>
<path d="M408.536 498.78C402.618 500.34 396.22 496.305 393.447 489.177L377.959 449.472C374.573 440.783 378.012 431.234 385.29 429.324L394.914 426.768C402.138 424.859 409.816 431.395 411.149 440.649L416.987 482.882C418.08 490.495 414.454 497.22 408.536 498.78Z" fill="#A67C52"/>
<path d="M161.708 498.78C167.626 500.34 174.024 496.305 176.797 489.177L192.285 449.472C195.671 440.783 192.232 431.234 184.954 429.324L175.331 426.768C168.106 424.859 160.429 431.395 159.096 440.649L153.258 482.882C152.245 490.495 155.79 497.22 161.708 498.78Z" fill="#A67C52"/>
<path d="M427.303 341.226H147.313C130.518 341.226 116.816 327.4 116.816 310.453V193.519C116.816 176.572 130.518 162.745 147.313 162.745H427.25C444.045 162.745 457.747 176.572 457.747 193.519V310.453C457.8 327.4 444.045 341.226 427.303 341.226Z" fill="#676BC4"/>
<path d="M437.727 283.607C432.556 283.66 428.264 287.669 427.811 292.86C425.918 312.766 420.346 358.066 408.19 380.635C399.819 396.129 375.267 397.582 368.736 397.636H205.695C199.164 397.528 174.612 396.129 166.241 380.635C154.085 358.066 148.46 312.82 146.62 292.86C146.114 287.642 141.849 283.714 136.704 283.607L84.8802 282.853C78.9621 282.8 74.217 287.776 74.6168 293.802C76.3496 318.63 83.0941 379.667 109.352 418.941C123.641 440.219 145.821 446.809 151.392 448.154C154.538 449.203 422.212 448.557 424.372 448.1C431.543 446.083 451.723 438.847 465.079 418.994C491.39 379.774 498.161 318.657 499.814 293.856C500.214 287.884 495.522 282.853 489.551 282.907L437.727 283.607Z" fill="#676BC4"/>
<path d="M205.614 397.932H368.869C375.4 397.824 400.005 396.425 408.376 380.931C421.279 356.99 426.77 307.44 428.396 289.686C428.743 285.92 427.943 282.235 426.21 278.926L415.44 258.375C414.801 257.218 413.148 257.514 412.908 258.724C409.976 273.412 399.099 325.947 393.368 329.767C386.703 334.232 184.714 330.359 176.983 329.767C170.399 329.31 163.521 275.268 161.628 259.289C161.468 257.971 159.682 257.621 159.042 258.832L148.619 278.738C146.78 282.208 146.033 286.082 146.38 289.955C147.926 307.548 153.444 357.124 166.347 380.904C174.504 396.425 199.083 397.824 205.614 397.932Z" fill="#4A52BD"/>
<path d="M384.704 397.69H185.567C184.981 397.69 184.421 397.69 183.915 397.636C163.894 396.883 150.938 377.488 158.296 360.137L167.36 338.725C168.16 336.869 169.946 332.134 169.946 332.134C177.677 314.73 189.966 310.372 207.107 310.372H363.35C380.492 310.372 396.14 319.276 400.858 332.995C400.858 332.995 402.298 336.869 403.098 338.725L412.161 360.137C419.492 377.488 406.537 396.883 386.543 397.636C385.85 397.69 385.263 397.69 384.704 397.69Z" fill="#2F37A8"/>
<path d="M146.46 289.794C146.113 285.92 146.913 281.993 148.699 278.576L159.122 258.724C159.709 257.621 161.308 257.863 161.655 259.02C161.655 259.02 161.415 255.362 153.924 254.851H124.547C119.455 254.851 114.443 256.357 110.151 259.128L83.2534 276.72C77.5752 280.432 74.2429 286.969 74.5895 293.802C74.1896 287.83 78.8814 282.8 84.8529 282.853L136.676 283.607C141.501 283.66 145.553 287.184 146.486 291.892L146.54 291.946C146.566 291.246 146.513 290.493 146.46 289.794Z" fill="#868AE0"/>
<path d="M428.343 289.794C428.689 285.92 427.596 282.046 425.757 278.576L415.334 258.778C414.747 257.675 413.148 257.917 412.801 259.074C412.801 259.074 413.041 255.415 420.532 254.904H449.883C454.974 254.904 460.039 256.411 464.225 259.181L491.176 276.828C496.908 280.594 500.187 287.131 499.84 293.909C500.24 287.938 495.495 282.853 489.577 282.961L437.673 283.714C432.795 283.768 429.009 287.238 428.103 291.999C428.156 292.053 428.263 290.493 428.343 289.794Z" fill="#868AE0"/>
<path d="M419.732 329.606C419.732 329.606 428.156 330.601 434.234 336.896C440.312 343.19 438.313 353.789 434.234 357.098C427.17 362.773 413.601 362.773 403.391 362.773C393.181 362.773 386.356 360.46 386.356 360.46L399.419 327.777C399.419 327.75 407.63 326.297 419.732 329.606Z" fill="#AB534D"/>
<path d="M298.971 428.651C293.933 437.905 288.948 447.105 283.882 456.358C280.497 462.545 285.135 470.938 291.054 473.305C298.171 476.211 304.463 472.256 307.848 466.069C312.887 456.816 317.872 447.616 322.937 438.362C326.322 432.175 321.684 423.783 315.766 421.415C308.675 418.537 302.357 422.465 298.971 428.651Z" fill="#FCB58A"/>
<path d="M346.049 135.953C346.049 135.953 334.933 100.068 331.147 84.9771C325.363 61.601 309.581 47.5323 287.295 47.5323C264.715 47.5323 248.827 61.8162 242.562 85.0847C236.191 109.026 227.82 134.043 227.82 134.043C226.834 137.217 228.407 140.633 231.446 141.844C238.617 144.749 253.626 149.833 287.241 149.376C317.232 148.972 332.774 144.695 340.558 143.888C344.503 143.512 347.089 139.719 346.049 135.953Z" fill="#110580"/>
<path d="M300.117 124.655H274.499V169.389C274.499 172.752 277.191 175.469 280.524 175.469H294.119C297.451 175.469 300.144 172.752 300.144 169.389V124.655H300.117Z" fill="#FCB58A"/>
<path d="M286.922 44.0622C295.755 44.0622 302.916 36.8361 302.916 27.9222C302.916 19.0083 295.755 11.7822 286.922 11.7822C278.088 11.7822 270.927 19.0083 270.927 27.9222C270.927 36.8361 278.088 44.0622 286.922 44.0622Z" fill="#110580"/>
<path d="M498.854 97.8622H394.38C393.741 97.8622 393.234 97.3511 393.234 96.7055V22.8381C393.234 22.1925 393.741 21.6814 394.38 21.6814H498.854C499.494 21.6814 500 22.1925 500 22.8381V96.7862C500 97.3511 499.494 97.8622 498.854 97.8622Z" fill="#EBDBCD"/>
<path d="M484.911 86.6987H408.296C407.789 86.6987 407.443 86.2952 407.443 85.8379V33.7595C407.443 33.2484 407.843 32.8987 408.296 32.8987H484.911C485.418 32.8987 485.764 33.3022 485.764 33.7595V85.8379C485.791 86.2952 485.391 86.6987 484.911 86.6987Z" fill="#FCFAF8"/>
<path d="M151.951 310.964C151.951 290.547 171.678 276.371 192.312 271.098C234.405 260.284 308.301 274.407 308.301 274.407L269.247 299.451C269.247 299.451 305.076 309.511 314.033 311.421C322.99 313.331 381.185 328.664 382.144 330.171C383.131 331.623 360.711 361.59 360.711 361.59C360.711 361.59 251.599 362.854 218.064 358.469C184.474 354.004 151.951 345.799 151.951 310.964Z" fill="#FF8A91"/>
<path d="M264.342 299.747C282.07 303.916 308.435 311.61 320.297 315.376C332.454 319.195 337.092 322.908 337.092 322.908C337.092 322.908 315.019 342.464 305.262 381.173C299.771 402.935 289.267 432.041 287.428 438.443C287.135 439.438 287.375 440.461 288.068 441.214C290.2 443.527 295.132 448.558 300.384 451.463C306.808 455.04 318.565 458.995 319.764 457.246C319.764 457.246 371.081 406.567 391.101 377.461C411.122 348.355 429.569 324.764 421.652 304.508C415.174 287.911 400.832 278.119 376.973 273.035C340.504 265.342 298.065 268.354 298.065 268.354C298.065 268.354 295.612 274.73 285.962 285.947C277.991 295.335 263.942 299.693 264.342 299.747Z" fill="#FFADB2"/>
<path d="M249.2 125.408C245.068 125.408 244.962 113.303 244.962 111.931C244.962 110.559 245.068 98.454 249.2 98.454C253.332 98.454 253.439 110.559 253.439 111.931C253.439 113.303 253.332 125.408 249.2 125.408ZM249.2 100.767C248.454 101.521 247.201 105.502 247.201 111.931C247.201 118.306 248.4 122.341 249.2 123.094C249.947 122.341 251.2 118.36 251.2 111.931C251.146 105.502 249.947 101.467 249.2 100.767Z" fill="white"/>
<path d="M324.616 125.408C320.484 125.408 320.377 113.303 320.377 111.931C320.377 110.559 320.484 98.454 324.616 98.454C328.748 98.454 328.855 110.559 328.855 111.931C328.855 113.303 328.721 125.408 324.616 125.408ZM324.616 100.767C323.87 101.521 322.617 105.502 322.617 111.931C322.617 118.306 323.816 122.341 324.616 123.094C325.363 122.341 326.615 118.36 326.615 111.931C326.562 105.502 325.363 101.467 324.616 100.767Z" fill="white"/>
<path d="M287.321 134.285C310.79 134.285 329.814 115.087 329.814 91.4062C329.814 67.725 310.79 48.5276 287.321 48.5276C263.853 48.5276 244.828 67.725 244.828 91.4062C244.828 115.087 263.853 134.285 287.321 134.285Z" fill="#FCB58A"/>
<path d="M243.975 94.5804C244.029 95.2798 244.082 95.9792 244.135 96.5979C244.135 96.6517 244.135 96.7593 244.189 96.84C244.295 97.5932 244.348 98.3464 244.482 99.0458V99.0996C244.588 99.9066 244.775 100.66 244.935 101.413C247.814 89.6039 258.344 80.8076 270.9 80.8076C272.446 80.8076 273.992 80.9152 275.485 81.2111C276.578 81.4532 277.778 81.6146 278.924 81.6146C286.842 81.6146 293.373 75.589 294.226 67.8418C294.226 67.8418 294.279 67.8418 294.279 67.788C294.173 68.595 294.039 69.402 294.039 70.2628C294.039 79.4088 301.37 86.7525 310.381 86.7525H310.434C319.258 88.5548 326.322 95.1453 328.908 103.753C329.415 101.843 329.894 99.8797 330.161 97.916C330.161 97.8622 330.161 97.7546 330.161 97.6739C330.268 96.8669 330.401 96.0061 330.454 95.1184C330.454 94.8763 330.508 94.7149 330.508 94.4728C330.561 93.5582 330.614 92.5629 330.614 91.6483C330.614 90.8413 330.614 90.0343 330.561 89.2811C330.561 89.039 330.508 88.8238 330.508 88.5817C330.454 87.9899 330.454 87.4788 330.401 86.9139C330.401 86.6718 330.348 86.4028 330.294 86.1607C330.241 85.6496 330.188 85.1116 330.054 84.6005C330.001 84.3584 329.948 84.0894 329.948 83.8473C329.841 83.3362 329.788 82.7982 329.655 82.2871C329.601 82.045 329.548 81.8298 329.495 81.5877C329.388 81.0766 329.201 80.4848 329.095 79.9737C329.041 79.8123 328.988 79.5702 328.935 79.3819C328.775 78.7901 328.588 78.2252 328.428 77.6334C328.375 77.472 328.322 77.3375 328.268 77.1761C328.028 76.5305 327.815 75.9118 327.575 75.32C327.522 75.2662 327.522 75.1586 327.469 75.0779C327.175 74.3785 326.882 73.6791 326.562 73.0066C322.83 64.9635 316.699 58.2654 309.128 53.8C306.729 52.4012 304.196 51.1907 301.557 50.2761C301.45 50.2223 301.397 50.2223 301.264 50.1685C300.517 49.8726 299.717 49.6574 298.971 49.4153C298.864 49.3615 298.731 49.3615 298.571 49.3077C296.838 48.8504 295.132 48.5007 293.346 48.2048C293.106 48.151 292.893 48.151 292.653 48.151C291.96 48.0972 291.347 47.9896 290.654 47.9089C290.414 47.9089 290.147 47.8551 289.907 47.8551C289.054 47.8013 288.121 47.7475 287.215 47.7475C263.249 47.7475 243.815 67.3576 243.815 91.5407C243.815 92.3477 243.815 93.1547 243.869 93.9617C243.975 94.2845 243.975 94.3921 243.975 94.5804Z" fill="#110580"/>
<path d="M277.751 462.034C276.845 463.191 269.034 474.005 268.341 479.735C267.834 483.716 265.462 491.006 263.862 500.744C262.263 510.454 257.198 531.06 272.18 536.547C284.789 541.228 287.828 533.319 290.52 529.607C293.213 525.895 300.677 496.628 301.237 493.507C302.33 487.132 309.314 466.957 309.314 466.957C310.114 465.289 310.514 464.644 308.728 464.133C305.396 463.137 300.304 461.362 296.572 459.613C292.546 457.704 288.494 453.938 286.202 452.081C285.402 451.382 284.949 450.925 284.362 451.839C284.416 451.866 277.804 461.981 277.751 462.034Z" fill="#C7645D"/>
<path d="M219.05 193.68C205.854 205.543 195.378 220.365 194.338 238.684C193.298 257.594 204.601 272.067 220.996 279.706C225.874 282.02 231.766 281.105 234.698 276.048C237.231 271.717 236.004 264.535 231.073 262.221C220.196 257.164 212.732 249.74 214.465 236.854C216.064 224.884 224.621 215.63 233.152 207.937C242.829 199.356 228.62 185.072 219.05 193.68Z" fill="#FCB58A"/>
<path d="M336.132 207.91C340.558 213.694 344.263 219.881 347.489 226.417C350.181 231.959 353.727 238.522 353.06 244.924C351.621 258.186 337.119 265.395 326.855 271.017C315.552 277.204 325.602 294.689 336.959 288.422C352.607 279.868 369.348 268.623 372.521 249.417C374.12 239.518 371.321 230.614 367.296 221.656C363.51 213.156 359.085 205.059 353.407 197.634C350.075 193.357 344.796 190.99 339.705 193.976C335.493 196.585 332.8 203.579 336.132 207.91Z" fill="#F0A173"/>
<path d="M328.668 162.611C317.765 156.827 305.502 153.922 300.117 153.061C298.465 160.19 294.786 164.117 286.868 164.117C278.791 164.117 276.018 160.001 274.472 152.711C272.819 152.765 267.808 153.922 266.661 154.029C252.453 155.294 242.642 161.158 235.365 166.296C225.261 173.344 214.491 187.17 210.066 193.088C208.813 194.756 208.867 197.069 210.173 198.71C212.572 201.616 216.651 206.108 220.783 208.905C228.114 213.828 240.323 213.828 240.323 213.828L242.163 196.827C242.163 196.827 239.07 215.335 238.43 227.601C237.684 240.97 238.43 252.941 238.43 252.941L331.147 254.851C331.147 254.851 334.533 241.589 332.534 223.27C332.027 218.536 326.909 198.226 326.909 198.226L331.201 211.703C331.201 211.703 337.679 211.945 348.742 207.022C352.127 205.516 356.819 201.885 359.592 199.679C360.845 198.683 361.084 196.854 360.098 195.563C355.22 188.65 339.731 168.448 328.668 162.611Z" fill="white"/>
<path d="M287.321 134.204C282.843 134.204 278.551 133.505 274.472 132.187V140.176C278.551 141.44 282.949 141.494 287.481 141.091C293.506 140.499 296.092 139.342 300.144 137.62V132.187C296.119 133.505 291.8 134.204 287.321 134.204Z" fill="#E3996D"/>
<path d="M449.776 12.1319C449.483 12.1319 449.136 12.0243 448.923 11.7284C448.523 11.2711 448.63 10.5717 449.083 10.222L457.507 3.38941C457.96 3.03971 458.653 3.09351 459 3.55081C459.4 4.00811 459.293 4.70751 458.84 5.05721L450.416 11.8898C450.229 11.9974 450.016 12.1319 449.776 12.1319Z" fill="#D4BFA9"/>
<path d="M461.291 7.0244C462.536 6.14973 462.514 3.94854 461.243 2.10789C459.973 0.267245 457.934 -0.515845 456.69 0.358826C455.445 1.2335 455.467 3.43471 456.738 5.27535C458.008 7.116 460.047 7.89907 461.291 7.0244Z" fill="#D4BFA9"/>
<path d="M286.761 294.582C301.557 298.052 316.512 300.769 331.254 304.481C338.585 306.337 345.863 308.409 352.98 310.964C354.633 311.556 356.313 312.175 357.912 312.82C358.712 313.17 359.565 313.466 360.365 313.815C360.951 314.058 362.417 314.407 362.897 314.918C363.59 315.833 361.511 317.824 361.004 318.442C359.752 319.949 358.552 321.401 357.326 322.908C339.091 345.127 322.403 368.665 308.754 394.085C301.184 408.208 294.652 422.841 289.321 437.932C288.574 440.003 291.907 440.945 292.653 438.847C302.41 410.951 316.619 384.858 333.2 360.621C341.571 348.409 350.528 336.6 359.911 325.167C361.058 323.715 362.257 322.343 363.404 320.944C364.497 319.68 365.696 318.388 366.203 316.774C366.656 315.268 366.496 313.654 365.35 312.551C364.203 311.394 362.311 310.937 360.871 310.345C353.7 307.386 346.316 305.019 338.852 302.948C322.004 298.267 304.729 295.254 287.695 291.273C285.509 290.762 284.576 294.071 286.761 294.582Z" fill="white"/>
<path d="M233.045 213.371C233.045 213.371 238.617 207.399 240.616 203.31C242.616 199.141 244.962 191.393 244.962 191.393C244.962 191.393 243.229 202.799 242.216 207.722C240.776 214.608 239.124 217.917 239.124 217.917L233.792 217.621C233.792 217.621 233.552 216.626 233.445 215.603C233.259 214.527 233.045 213.371 233.045 213.371Z" fill="#E0E0E0"/>
<path d="M336.132 215.442C336.132 215.442 331.307 208.905 329.761 204.574C328.215 200.244 326.775 192.254 326.775 192.254C326.775 192.254 327.175 203.767 327.628 208.744C328.322 215.738 329.574 219.208 329.574 219.208L334.906 219.504C334.906 219.504 335.253 218.509 335.493 217.54C335.786 216.599 336.132 215.442 336.132 215.442Z" fill="#E0E0E0"/>
<path d="M341.011 291.515H229.18C225.448 291.515 222.196 288.852 221.449 285.086L208.253 217.809C207.267 212.887 210.999 208.314 215.984 208.314H358.579C363.75 208.314 367.536 213.236 366.203 218.267L348.608 285.624C347.702 289.094 344.556 291.515 341.011 291.515Z" fill="#C5C6E3"/>
<path d="M298.758 252.295C298.304 258.321 293.186 263.243 287.348 263.243C281.51 263.243 276.392 258.375 275.885 252.376C275.378 246.377 280.523 241.428 287.295 241.428C294.092 241.374 299.211 246.27 298.758 252.295Z" fill="#E8E9FF"/>
<path d="M430.396 52.8585C433.941 49.496 440.659 47.9896 444.604 49.8995C448.55 51.8094 447.19 51.4059 448.55 51.8094C449.936 52.2129 452.442 51.648 454.788 53.4772C457.48 55.6292 462.519 61.4665 459.773 69.1061C457.427 75.589 449.909 81.1304 440.846 79.5702C431.782 78.01 427.303 72.5762 426.157 67.9494C424.824 62.5156 426.957 56.0865 430.396 52.8585Z" fill="#FF5856"/>
<path d="M449.376 53.9614C449.376 53.9614 449.083 44.8692 454.761 42.7979C460.439 40.7266 469.61 37.8752 469.21 38.467C468.81 38.9781 466.571 48.8773 462.732 51.4866C456.947 55.4678 449.376 53.9614 449.376 53.9614Z" fill="#1F6771"/>
<path d="M443.405 55.1719C443.405 55.1719 444.258 50.7872 444.444 48.1241C444.791 42.7441 444.684 40.081 444.684 40.081L449.216 40.8342C449.216 40.8342 448.576 47.1288 448.07 49.4422C447.164 53.5579 445.777 55.9789 445.777 55.9789C445.777 55.9789 444.924 56.6783 444.178 56.2748C443.351 55.8175 443.405 55.1719 443.405 55.1719Z" fill="#6B4D3A"/>
<path d="M449.15 40.8025C449.274 40.176 448.368 39.465 447.127 39.2143C445.885 38.9637 444.778 39.2683 444.654 39.8947C444.529 40.5211 445.435 41.2322 446.677 41.4829C447.918 41.7335 449.026 41.4289 449.15 40.8025Z" fill="#8A634B"/>
</g>
<defs>
<clipPath id="clip0_3:0">
<rect width="500" height="538" fill="white"/>
</clipPath>
</defs>
</svg>
